<?xml version="1.0" encoding="UTF-8"?>
<svg width="17px" height="17px" viewBox="0 0 17 17" version="1.1" xmlns="http://www.w3.org/2000/svg" xmlns:xlink="http://www.w3.org/1999/xlink">
    <!-- Generator: Sketch 51.2 (57519) - http://www.bohemiancoding.com/sketch -->
    <title>OG</title>
    <desc>Created with Sketch.</desc>
    <defs></defs>
    <g id="Page-1" stroke="none" stroke-width="1" fill="none" fill-rule="evenodd">
        <g id="Desktop" transform="translate(-97.000000, -573.000000)" fill="#FFD15C">
            <path d="M101.4,589.22 C99.024,589.22 97.726,587.812 97.726,585.348 L97.726,577.252 C97.726,574.788 99.024,573.38 101.4,573.38 C103.776,573.38 105.074,574.788 105.074,577.252 L105.074,585.348 C105.074,587.812 103.776,589.22 101.4,589.22 Z M101.4,587.02 C102.17,587.02 102.654,586.602 102.654,585.502 L102.654,577.098 C102.654,575.998 102.17,575.58 101.4,575.58 C100.63,575.58 100.146,575.998 100.146,577.098 L100.146,585.502 C100.146,586.602 100.63,587.02 101.4,587.02 Z M110.134,589.22 C107.758,589.22 106.526,587.812 106.526,585.348 L106.526,577.252 C106.526,574.788 107.758,573.38 110.134,573.38 C112.51,573.38 113.742,574.788 113.742,577.252 L113.742,578.572 L111.454,578.572 L111.454,577.098 C111.454,575.998 110.97,575.58 110.2,575.58 C109.43,575.58 108.946,575.998 108.946,577.098 L108.946,585.524 C108.946,586.624 109.43,587.02 110.2,587.02 C110.97,587.02 111.454,586.624 111.454,585.524 L111.454,582.51 L110.244,582.51 L110.244,580.31 L113.742,580.31 L113.742,585.348 C113.742,587.812 112.51,589.22 110.134,589.22 Z" id="OG"></path>
        </g>
    </g>
</svg>