<?xml version="1.0" encoding="iso-8859-1"?>
<!-- Generator: Adobe Illustrator 21.0.0, SVG Export Plug-In . SVG Version: 6.00 Build 0)  -->
<svg xmlns="http://www.w3.org/2000/svg" xmlns:xlink="http://www.w3.org/1999/xlink" version="1.1" id="Capa_1" x="0px" y="0px" viewBox="0 0 512 512" style="enable-background:new 0 0 512 512;" xml:space="preserve" width="512" height="512">
<g>
	<g>
		<path style="fill:#7284C9;" d="M512,381.986H0l0-248.707c0-9.208,7.354-15.533,15.46-15.287l1.577,0.049    c42.627,1.315,107.017,3.302,180.36-37.969c8.057-4.534,17.223-1.167,20.946,6.08c37.904,73.796,126.344,130.016,230.806,146.721    C485.441,238.681,512,270.181,512,306.886V381.986z"/>
	</g>
	<path style="fill:#455DB8;" d="M512,306.886c0-36.705-26.56-68.204-62.852-74.012c-104.462-16.705-192.901-72.925-230.806-146.721   c-3.722-7.246-12.888-10.614-20.946-6.08C186.034,86.467,174.886,91.821,164,96.302v285.684h348V306.886z"/>
	<path style="fill:#CCE6F5;" d="M15,234.986H0v147h147v-15C147,294.084,87.902,234.986,15,234.986z"/>
	<path style="fill:#9ED6F2;" d="M449.148,232.874c-29.598-4.733-57.908-12.642-84.148-23.22v172.333h147v-75.1   C512,270.128,485.391,238.673,449.148,232.874z"/>
	<g>
		<g>
			<path style="fill:#9ED6F2;" d="M202.213,158.656c-4.498-6.957-2.505-16.243,4.451-20.741l40.377-26.109     c6.958-4.499,16.243-2.505,20.741,4.451c4.498,6.957,2.505,16.243-4.451,20.741l-40.377,26.109     C215.998,167.605,206.712,165.614,202.213,158.656z"/>
		</g>
		<g>
			<path style="fill:#9ED6F2;" d="M250.302,205.504c-5.858-5.857-5.858-15.355,0-21.213l33.999-34.001     c5.857-5.857,15.355-5.858,21.213,0c5.858,5.857,5.858,15.355,0,21.213l-33.999,34.001     C265.658,211.361,256.161,211.361,250.302,205.504z"/>
		</g>
		<g>
			<path style="fill:#9ED6F2;" d="M309.013,243.212c-6.85-4.659-8.626-13.989-3.967-20.839l27.043-39.758     c4.659-6.85,13.99-8.626,20.839-3.966c6.85,4.659,8.626,13.989,3.967,20.839l-27.043,39.758     C325.193,246.094,315.862,247.871,309.013,243.212z"/>
		</g>
	</g>
	<g>
		<path style="fill:#7284C9;" d="M497,433.986H15c-8.284,0-15-6.716-15-15v-67h512v67C512,427.27,505.284,433.986,497,433.986z"/>
	</g>
	<path style="fill:#455DB8;" d="M164,351.986v82h333c8.284,0,15-6.716,15-15v-67H164z"/>
</g>















</svg>
